<svg width="12" height="12" viewBox="0 0 12 12" fill="none" xmlns="http://www.w3.org/2000/svg">
<g clip-path="url(#clip0_588_482)">
<path d="M8.08723 0.373195C7.43724 0.132023 6.73421 0 6.00029 0C5.26637 0 4.56334 0.132023 3.91334 0.373195L3.3916 6L3.91334 11.6268C4.56334 11.868 5.26637 12 6.00029 12C6.73421 12 7.43724 11.868 8.08723 11.6268L8.60898 6L8.08723 0.373195Z" fill="#FFDA44"/>
<path d="M12 5.99998C12 3.42022 10.3717 1.22093 8.08691 0.373199V11.6268C10.3717 10.779 12 8.57979 12 5.99998V5.99998Z" fill="#D80027"/>
<path d="M0 5.99998C0 8.57979 1.62825 10.779 3.91305 11.6268V0.373199C1.62825 1.22093 0 3.42022 0 5.99998V5.99998Z" fill="black"/>
</g>
<defs>
<clipPath id="clip0_588_482">
<rect width="12" height="12" fill="white"/>
</clipPath>
</defs>
</svg>
