<svg width="14" height="14" viewBox="0 0 14 14" fill="none" xmlns="http://www.w3.org/2000/svg">
<g clip-path="url(#clip0_588_477)">
<path d="M7 14C10.866 14 14 10.866 14 7.00003C14 3.13404 10.866 3.05176e-05 7 3.05176e-05C3.13401 3.05176e-05 0 3.13404 0 7.00003C0 10.866 3.13401 14 7 14Z" fill="#F0F0F0"/>
<path d="M13.9998 7C13.9998 3.99025 12.1002 1.42445 9.43457 0.435394V13.5646C12.1002 12.5756 13.9998 10.0098 13.9998 7V7Z" fill="#D80027"/>
<path d="M0 7C0 10.0098 1.89965 12.5756 4.56523 13.5646V0.435394C1.89965 1.42445 0 3.99025 0 7Z" fill="#0052B4"/>
</g>
<defs>
<clipPath id="clip0_588_477">
<rect width="14" height="14" fill="white"/>
</clipPath>
</defs>
</svg>
