<svg width="19" height="19" viewBox="0 0 19 19" fill="none" xmlns="http://www.w3.org/2000/svg">
<g clip-path="url(#clip0_588_467)">
<path d="M0 9.49996C0 10.662 0.209037 11.7751 0.590893 12.8043L9.5 13.2174L18.4091 12.8043C18.791 11.7751 19 10.662 19 9.49996C19 8.33791 18.791 7.22478 18.4091 6.19563L9.5 5.78256L0.590893 6.19559C0.209037 7.22478 0 8.33791 0 9.49996H0Z" fill="#FFDA44"/>
<path d="M9.49993 -3.05176e-05C5.41526 -3.05176e-05 1.9331 2.57803 0.59082 6.19564H18.4091C17.0668 2.57803 13.5846 -3.05176e-05 9.49993 -3.05176e-05V-3.05176e-05Z" fill="#D80027"/>
<path d="M18.409 12.8043H0.59082C1.9331 16.4219 5.41526 19 9.49993 19C13.5846 19 17.0668 16.4219 18.409 12.8043Z" fill="#496E2D"/>
<path d="M9.49972 6.19565L10.3198 8.71983H12.9742L10.8269 10.28L11.6471 12.8043L9.49972 11.2442L7.35238 12.8043L8.17265 10.28L6.02539 8.71983H8.6796L9.49972 6.19565Z" fill="black"/>
</g>
<defs>
<clipPath id="clip0_588_467">
<rect width="19" height="19" fill="white"/>
</clipPath>
</defs>
</svg>
