<svg width="15" height="15" viewBox="0 0 15 15" fill="none" xmlns="http://www.w3.org/2000/svg">
<g clip-path="url(#clip0_588_487)">
<path d="M7.5 15C11.6421 15 15 11.6421 15 7.49997C15 3.35783 11.6421 -3.05176e-05 7.5 -3.05176e-05C3.35786 -3.05176e-05 0 3.35783 0 7.49997C0 11.6421 3.35786 15 7.5 15Z" fill="#F0F0F0"/>
<path d="M7.5003 0C4.27556 0 1.52649 2.03531 0.466797 4.89132H14.5338C13.4741 2.03531 10.725 0 7.5003 0V0Z" fill="#A2001D"/>
<path d="M7.5003 15C10.725 15 13.4741 12.9647 14.5338 10.1087H0.466797C1.52649 12.9647 4.27557 15 7.5003 15Z" fill="#0052B4"/>
</g>
<defs>
<clipPath id="clip0_588_487">
<rect width="15" height="15" fill="white"/>
</clipPath>
</defs>
</svg>
