<svg width="19" height="19" viewBox="0 0 19 19" fill="none" xmlns="http://www.w3.org/2000/svg">
<g clip-path="url(#clip0_588_460)">
<path d="M9.5 19C14.7467 19 19 14.7467 19 9.5C19 4.25329 14.7467 0 9.5 0C4.25329 0 0 4.25329 0 9.5C0 14.7467 4.25329 19 9.5 19Z" fill="#F0F0F0"/>
<path d="M0 9.49998C0 13.5847 2.57806 17.0668 6.19567 18.4091V0.590912C2.57806 1.93316 0 5.41535 0 9.49998V9.49998Z" fill="#6DA544"/>
<path d="M19.0004 9.49998C19.0004 5.41535 16.4223 1.93316 12.8047 0.590912V18.4092C16.4223 17.0668 19.0004 13.5847 19.0004 9.49998V9.49998Z" fill="#6DA544"/>
</g>
<defs>
<clipPath id="clip0_588_460">
<rect width="19" height="19" fill="white"/>
</clipPath>
</defs>
</svg>
