<svg width="19" height="19" viewBox="0 0 19 19" fill="none" xmlns="http://www.w3.org/2000/svg">
<g clip-path="url(#clip0_588_451)">
<path d="M9.5 18.9999C14.7467 18.9999 19 14.7466 19 9.49991C19 4.2532 14.7467 -9.15527e-05 9.5 -9.15527e-05C4.25329 -9.15527e-05 0 4.2532 0 9.49991C0 14.7466 4.25329 18.9999 9.5 18.9999Z" fill="#F0F0F0"/>
<path d="M9.08691 9.50001H18.9999C18.9999 8.64256 18.8856 7.8119 18.6727 7.02173H9.08691V9.50001Z" fill="#D80027"/>
<path d="M9.08691 4.54349H17.6056C17.0241 3.59453 16.2805 2.75575 15.4135 2.06522H9.08691V4.54349Z" fill="#D80027"/>
<path d="M9.49954 19C11.7353 19 13.7903 18.2273 15.4131 16.9348H3.58594C5.20873 18.2273 7.26374 19 9.49954 19Z" fill="#D80027"/>
<path d="M1.39423 14.4565H17.6055C18.0724 13.6947 18.4345 12.862 18.6726 11.9782H0.327148C0.565279 12.862 0.927355 13.6947 1.39423 14.4565V14.4565Z" fill="#D80027"/>
<path d="M4.40058 1.48347H5.2663L4.46103 2.0685L4.76863 3.01512L3.96339 2.43009L3.15816 3.01512L3.42386 2.19734C2.71485 2.78794 2.09341 3.47988 1.5813 4.25086H1.8587L1.34611 4.62325C1.26625 4.75648 1.18965 4.89181 1.11625 5.02916L1.36102 5.78251L0.904356 5.45072C0.790838 5.69122 0.687006 5.93715 0.593676 6.18819L0.86335 7.01826H1.8587L1.05342 7.60328L1.36102 8.54991L0.555787 7.96488L0.0734395 8.31534C0.0251602 8.70343 0 9.09872 0 9.49991H9.5C9.5 4.25324 9.5 3.6347 9.5 -9.15527e-05C7.62331 -9.15527e-05 5.87386 0.544303 4.40058 1.48347V1.48347ZM4.76863 8.54991L3.96339 7.96488L3.15816 8.54991L3.46576 7.60328L2.66048 7.01826H3.65583L3.96339 6.07163L4.27096 7.01826H5.2663L4.46103 7.60328L4.76863 8.54991ZM4.46103 4.83589L4.76863 5.78251L3.96339 5.19748L3.15816 5.78251L3.46576 4.83589L2.66048 4.25086H3.65583L3.96339 3.30424L4.27096 4.25086H5.2663L4.46103 4.83589ZM8.17624 8.54991L7.371 7.96488L6.56576 8.54991L6.87336 7.60328L6.06809 7.01826H7.06344L7.371 6.07163L7.67856 7.01826H8.67391L7.86864 7.60328L8.17624 8.54991ZM7.86864 4.83589L8.17624 5.78251L7.371 5.19748L6.56576 5.78251L6.87336 4.83589L6.06809 4.25086H7.06344L7.371 3.30424L7.67856 4.25086H8.67391L7.86864 4.83589ZM7.86864 2.0685L8.17624 3.01512L7.371 2.43009L6.56576 3.01512L6.87336 2.0685L6.06809 1.48347H7.06344L7.371 0.536844L7.67856 1.48347H8.67391L7.86864 2.0685Z" fill="#0052B4"/>
</g>
<defs>
<clipPath id="clip0_588_451">
<rect width="19" height="19" fill="white"/>
</clipPath>
</defs>
</svg>
