<svg width="40" height="40" viewBox="0 0 40 40" fill="none" xmlns="http://www.w3.org/2000/svg">
<path d="M30.8337 33.3333H9.16699L4.16699 38.3333V10C4.16699 7.25 6.41699 5 9.16699 5H30.8337C33.5837 5 35.8337 7.25 35.8337 10V28.3333C35.8337 31.0833 33.5837 33.3333 30.8337 33.3333Z" fill="#009BC0"/>
<path d="M18.333 16.6665H21.6663V25.8332H18.333V16.6665Z" fill="white"/>
<path d="M19.9997 14.1666C20.9201 14.1666 21.6663 13.4204 21.6663 12.4999C21.6663 11.5794 20.9201 10.8333 19.9997 10.8333C19.0792 10.8333 18.333 11.5794 18.333 12.4999C18.333 13.4204 19.0792 14.1666 19.9997 14.1666Z" fill="white"/>
</svg>
