<svg width="50" height="30" viewBox="0 0 50 30" fill="none" xmlns="http://www.w3.org/2000/svg">
<path d="M48.6199 6.9687L26.8277 0.273389C25.6402 -0.0914551 24.359 -0.0914551 23.1723 0.273389L1.3793 6.9687C-0.459766 7.53355 -0.459766 9.96558 1.3793 10.5304L5.17852 11.6976C4.34492 12.7281 3.83242 13.9851 3.78164 15.3617C3.0293 15.7929 2.49961 16.5711 2.49961 17.5C2.49961 18.3421 2.94336 19.0507 3.58242 19.5039L1.58789 28.4789C1.41445 29.2593 2.0082 30 2.80742 30H7.19102C7.99102 30 8.58477 29.2593 8.41133 28.4789L6.4168 19.5039C7.05586 19.0507 7.49961 18.3421 7.49961 17.5C7.49961 16.5961 6.99414 15.8398 6.27617 15.4007C6.33555 14.2273 6.93555 13.1898 7.89258 12.532L23.1715 17.2265C23.8793 17.4437 25.2371 17.7148 26.827 17.2265L48.6199 10.5312C50.4598 9.96558 50.4598 7.53433 48.6199 6.9687ZM27.5613 19.6164C25.3324 20.3007 23.4332 19.9226 22.4371 19.6164L11.1074 16.1359L9.99961 25C9.99961 27.7617 16.7152 30 24.9996 30C33.284 30 39.9996 27.7617 39.9996 25L38.8918 16.1351L27.5613 19.6164Z" fill="#009BC0"/>
</svg>
