<svg width="55" height="35" viewBox="0 0 55 35" fill="none" xmlns="http://www.w3.org/2000/svg">
<path fill-rule="evenodd" clip-rule="evenodd" d="M52.8045 4.02418V29.2847C52.8045 29.2847 44.3944 27.2644 38.146 28.2909C32.5492 29.2101 28.4304 31.8046 27.7357 32.2631V32.3395C27.7357 32.3395 27.715 32.3255 27.6775 32.3006C27.6408 32.3255 27.6201 32.3395 27.6201 32.3395V32.2631C26.9257 31.8046 22.807 29.2108 17.2118 28.2909C10.9614 27.2636 1.72826 29.2847 1.72826 29.2847V3.94943C1.18831 4.01864 0.615431 4.09254 0 4.17111V31.3842C0 31.3842 10.0629 29.1714 16.9079 30.2971C23.6391 31.4033 27.7059 34.7314 27.7059 34.7314C27.7059 34.7314 31.7728 31.4038 38.5036 30.2971C45.3499 29.1711 55 31.3842 55 31.3842L54.9996 4.2883C55.0004 4.2883 54.1606 4.16683 52.8052 4.02409L52.8045 4.02418ZM16.7037 25.734C22.1775 26.6326 26.4075 29.3399 26.4075 29.3399V4.48722C26.4075 4.48722 22.155 1.77698 16.6686 0.875812C11.1151 -0.0368535 3.86108 1.76613 3.86108 1.76613V26.6188C3.86108 26.6188 11.1386 24.8194 16.7042 25.7339L16.7037 25.734ZM50.6685 26.7097V1.85698C50.6685 1.85698 44.0187 0.0536328 38.4678 0.966667C32.9815 1.86744 28.5893 4.57733 28.5893 4.57733V29.43C28.5893 29.43 32.9574 26.7238 38.432 25.8237C43.9968 24.9107 50.6683 26.7093 50.6683 26.7093L50.6685 26.7097Z" fill="#009BC0"/>
</svg>
