<svg width="34" height="40" viewBox="0 0 34 40" fill="none" xmlns="http://www.w3.org/2000/svg">
<path d="M17.0002 -4.46215e-05C14.8726 -0.0998328 12.7476 0.245718 10.7612 1.01449C8.77477 1.78326 6.97078 2.95831 5.46467 4.46442C3.95855 5.97053 2.7835 7.77453 2.01473 9.76092C1.24596 11.7473 0.900411 13.8723 1.0002 16C1.0002 21.04 5.0002 26 7.0002 28C9.0002 30 17.0002 40 17.0002 40C17.0002 40 25.0002 30 27.0002 28C29.0002 26 33.0002 21.04 33.0002 16C33.1 13.8723 32.7544 11.7473 31.9857 9.76092C31.2169 7.77453 30.0418 5.97053 28.5357 4.46442C27.0296 2.95831 25.2256 1.78326 23.2392 1.01449C21.2528 0.245718 19.1278 -0.0998328 17.0002 -4.46215e-05ZM17.0002 22.5C15.7146 22.5 14.4579 22.1187 13.389 21.4045C12.3201 20.6903 11.487 19.6751 10.995 18.4874C10.503 17.2997 10.3743 15.9927 10.6251 14.7319C10.8759 13.471 11.495 12.3128 12.404 11.4038C13.313 10.4947 14.4712 9.87566 15.7321 9.62485C16.993 9.37405 18.2999 9.50277 19.4876 9.99474C20.6754 10.4867 21.6905 11.3198 22.4048 12.3887C23.119 13.4577 23.5002 14.7144 23.5002 16C23.5002 16.8535 23.3321 17.6988 23.0054 18.4874C22.6788 19.276 22.2 19.9926 21.5964 20.5961C20.9928 21.1997 20.2763 21.6785 19.4876 22.0052C18.699 22.3318 17.8538 22.5 17.0002 22.5Z" fill="#009BC0"/>
</svg>
