<svg width="93" height="81" viewBox="0 0 93 81" fill="none" xmlns="http://www.w3.org/2000/svg">
<path d="M26.456 43.216C30.296 44.56 33.272 46.768 35.384 49.84C37.496 52.912 38.552 56.656 38.552 61.072C38.552 66.832 36.728 71.536 33.08 75.184C29.432 78.832 24.92 80.656 19.544 80.656C13.976 80.656 9.368 78.832 5.72 75.184C2.072 71.344 0.248001 66.64 0.248001 61.072C0.248001 58.384 0.536001 55.696 1.112 53.008C1.88 50.128 3.32 46 5.432 40.624L18.968 0.303988H37.112L26.456 43.216ZM80.888 43.216C84.728 44.56 87.704 46.768 89.816 49.84C91.928 52.912 92.984 56.656 92.984 61.072C92.984 66.832 91.16 71.536 87.512 75.184C83.864 78.832 79.352 80.656 73.976 80.656C68.408 80.656 63.8 78.832 60.152 75.184C56.504 71.344 54.68 66.64 54.68 61.072C54.68 58.384 54.968 55.696 55.544 53.008C56.312 50.128 57.752 46 59.864 40.624L73.4 0.303988H91.544L80.888 43.216Z" fill="white" fill-opacity="0.5"/>
</svg>
