<svg width="94" height="81" viewBox="0 0 94 81" fill="none" xmlns="http://www.w3.org/2000/svg">
<path d="M20.12 0.575993C25.496 0.575993 29.912 2.49599 33.368 6.33599C37.016 9.98399 38.84 14.592 38.84 20.16C38.84 23.04 38.552 25.92 37.976 28.8C37.4 31.488 36.152 35.424 34.232 40.608L20.408 80.928H2.264L12.92 38.016C9.272 36.672 6.296 34.464 3.992 31.392C1.88 28.128 0.824 24.384 0.824 20.16C0.824 14.4 2.648 9.69599 6.296 6.04799C9.944 2.39999 14.552 0.575993 20.12 0.575993ZM74.552 0.575993C79.928 0.575993 84.344 2.49599 87.8 6.33599C91.448 9.98399 93.272 14.592 93.272 20.16C93.272 23.04 92.984 25.92 92.408 28.8C91.832 31.488 90.584 35.424 88.664 40.608L74.84 80.928H56.696L67.352 38.016C63.704 36.672 60.728 34.464 58.424 31.392C56.312 28.128 55.256 24.384 55.256 20.16C55.256 14.4 57.08 9.69599 60.728 6.04799C64.376 2.39999 68.984 0.575993 74.552 0.575993Z" fill="white" fill-opacity="0.5"/>
</svg>
