<svg width="32" height="33" viewBox="0 0 32 33" fill="none" xmlns="http://www.w3.org/2000/svg">
<circle cx="15.9017" cy="16.4295" r="15.257" stroke="#009BC0" stroke-width="1.28933"/>
<path d="M16.3314 9.12329C14.2284 9.12329 13.9663 9.13345 13.1433 9.16826C12.3169 9.20888 11.7579 9.33702 11.2647 9.52851C10.7485 9.7234 10.281 10.0285 9.89478 10.4226C9.49959 10.8079 9.1943 11.2757 9.00068 11.7925C8.80919 12.2858 8.68105 12.8448 8.64043 13.6712C8.6032 14.4946 8.59546 14.7563 8.59546 16.8592C8.59546 18.9622 8.60561 19.2243 8.64043 20.0473C8.68105 20.8713 8.80919 21.4327 9.00068 21.926C9.19556 22.4422 9.50069 22.9097 9.89478 23.2959C10.2801 23.6911 10.7478 23.9964 11.2647 24.19C11.7579 24.3791 12.3193 24.5096 13.1433 24.5502C13.9668 24.5875 14.2284 24.5952 16.3314 24.5952C18.4344 24.5952 18.6965 24.585 19.5195 24.5502C20.3435 24.5096 20.9049 24.3786 21.3981 24.19C21.9143 23.9951 22.3818 23.69 22.768 23.2959C23.1637 22.911 23.4691 22.4431 23.6621 21.926C23.8512 21.4327 23.9818 20.8713 24.0224 20.0473C24.0596 19.2238 24.0674 18.9622 24.0674 16.8592C24.0674 14.7563 24.0572 14.4942 24.0224 13.6712C23.9818 12.8472 23.8507 12.2829 23.6621 11.7925C23.4673 11.2763 23.1621 10.8088 22.768 10.4226C22.3832 10.0269 21.9153 9.72154 21.3981 9.52851C20.9049 9.33702 20.3435 9.20888 19.5195 9.16826C18.696 9.13103 18.4344 9.12329 16.3314 9.12329ZM16.3314 10.5159C18.3967 10.5159 18.6433 10.5261 19.4595 10.5609C20.2124 10.5962 20.6225 10.7219 20.8947 10.8283C21.2313 10.9526 21.5359 11.1503 21.7864 11.4071C22.0428 11.6566 22.2398 11.9605 22.3628 12.2964C22.4692 12.5686 22.5949 12.9787 22.6302 13.7316C22.6651 14.5478 22.6752 14.7949 22.6752 16.8597C22.6752 18.9245 22.6651 19.1716 22.6273 19.9879C22.5867 20.7408 22.461 21.1508 22.3551 21.4231C22.2086 21.7862 22.0451 22.0401 21.7753 22.3147C21.524 22.57 21.2195 22.7668 20.8836 22.8911C20.6148 22.9975 20.1989 23.1233 19.4431 23.1586C18.6225 23.1934 18.3807 23.2035 16.3101 23.2035C14.2395 23.2035 13.9982 23.1934 13.1767 23.1557C12.4238 23.115 12.0084 22.9893 11.7362 22.8834C11.3687 22.7369 11.1167 22.5734 10.8469 22.3036C10.5747 22.0314 10.4015 21.7722 10.2681 21.4119C10.1598 21.1431 10.036 20.7272 9.99584 19.9714C9.96828 19.1605 9.95522 18.909 9.95522 16.8481C9.95522 14.7882 9.96828 14.5362 9.99584 13.7152C10.036 12.9594 10.1598 12.5445 10.2681 12.2746C10.4015 11.9066 10.5751 11.6552 10.8469 11.383C11.1162 11.1136 11.3687 10.9395 11.7362 10.8032C12.0084 10.6973 12.4136 10.5715 13.1694 10.5338C13.99 10.5043 14.2318 10.4937 16.2995 10.4937L16.3314 10.5159ZM16.3314 12.8888C15.8098 12.8886 15.2933 12.9912 14.8114 13.1907C14.3295 13.3902 13.8916 13.6827 13.5227 14.0515C13.1539 14.4204 12.8614 14.8583 12.6619 15.3402C12.4624 15.8221 12.3598 16.3386 12.36 16.8602C12.3598 17.3818 12.4624 17.8983 12.6619 18.3803C12.8614 18.8622 13.1539 19.3001 13.5227 19.6689C13.8916 20.0377 14.3295 20.3302 14.8114 20.5298C15.2933 20.7293 15.8098 20.8319 16.3314 20.8317C16.853 20.8319 17.3695 20.7293 17.8515 20.5298C18.3334 20.3302 18.7713 20.0377 19.1401 19.6689C19.5089 19.3001 19.8014 18.8622 20.001 18.3803C20.2005 17.8983 20.3031 17.3818 20.3029 16.8602C20.3031 16.3386 20.2005 15.8221 20.001 15.3402C19.8014 14.8583 19.5089 14.4204 19.1401 14.0515C18.7713 13.6827 18.3334 13.3902 17.8515 13.1907C17.3695 12.9912 16.853 12.8886 16.3314 12.8888ZM16.3314 19.439C14.9059 19.439 13.7526 18.2857 13.7526 16.8602C13.7526 15.4347 14.9059 14.2814 16.3314 14.2814C17.7569 14.2814 18.9102 15.4347 18.9102 16.8602C18.9102 18.2857 17.7569 19.439 16.3314 19.439ZM21.3914 12.7301C21.3911 12.9766 21.293 13.2129 21.1187 13.387C20.9443 13.5612 20.7079 13.6591 20.4615 13.6591C20.3396 13.6591 20.219 13.6351 20.1064 13.5884C19.9938 13.5418 19.8915 13.4734 19.8053 13.3873C19.7192 13.3011 19.6508 13.1988 19.6042 13.0862C19.5575 12.9736 19.5335 12.853 19.5335 12.7311C19.5335 12.6093 19.5575 12.4886 19.6042 12.376C19.6508 12.2634 19.7192 12.1611 19.8053 12.075C19.8915 11.9888 19.9938 11.9204 20.1064 11.8738C20.219 11.8272 20.3396 11.8032 20.4615 11.8032C20.9726 11.8032 21.3914 12.219 21.3914 12.7301Z" fill="#009BC0"/>
</svg>
