<svg width="32" height="33" viewBox="0 0 32 33" fill="none" xmlns="http://www.w3.org/2000/svg">
<circle cx="16.0982" cy="16.5701" r="15.257" stroke="#009BC0" stroke-width="1.28933"/>
<path d="M12.2552 24.7355H9.04755V14.4059H12.2552V24.7355ZM10.6497 12.9969C9.62395 12.9969 8.79199 12.1473 8.79199 11.1216C8.79199 10.6289 8.98771 10.1564 9.33609 9.80801C9.68447 9.45963 10.157 9.26392 10.6497 9.26392C11.1423 9.26392 11.6148 9.45963 11.9632 9.80801C12.3116 10.1564 12.5073 10.6289 12.5073 11.1216C12.5073 12.1473 11.675 12.9969 10.6497 12.9969ZM24.2604 24.7355H21.0597V19.7071C21.0597 18.5087 21.0355 16.9719 19.392 16.9719C17.7243 16.9719 17.4687 18.2739 17.4687 19.6208V24.7355H14.2645V14.4059H17.3409V15.815H17.3858C17.8141 15.0034 18.8601 14.1469 20.4208 14.1469C23.6671 14.1469 24.2639 16.2846 24.2639 19.0613V24.7355H24.2604Z" fill="#009BC0"/>
</svg>
