<svg width="33" height="33" viewBox="0 0 33 33" fill="none" xmlns="http://www.w3.org/2000/svg">
<circle cx="16.3006" cy="16.4295" r="15.257" stroke="#009BC0" stroke-width="1.28933"/>
<path d="M24.4663 11.4713C24.0423 12.1029 23.5058 12.6654 22.8828 13.1154C22.8914 13.2452 22.8914 13.3836 22.8914 13.5221C22.8914 17.7189 19.6984 22.556 13.8661 22.556C12.0749 22.556 10.4049 22.0282 8.99438 21.1282C9.24533 21.1542 9.49627 21.1715 9.75587 21.1715C11.2442 21.1715 12.6114 20.661 13.6931 19.8129C13.0314 19.7993 12.3905 19.5792 11.86 19.1837C11.3294 18.7881 10.9356 18.2366 10.7337 17.6064C10.924 17.641 11.1231 17.6669 11.3307 17.6669C11.6163 17.6669 11.9019 17.6237 12.1615 17.5545C11.4438 17.4071 10.7988 17.0168 10.3354 16.4494C9.87195 15.8819 9.61838 15.172 9.61741 14.4393V14.4047C10.0501 14.6383 10.5347 14.7854 11.0538 14.8027C10.6193 14.5112 10.2633 14.1171 10.0172 13.6553C9.77123 13.1935 9.64282 12.6781 9.64337 12.1549C9.64337 11.5751 9.79913 11.0299 10.076 10.5627C11.6423 12.4837 13.9786 13.747 16.6178 13.8768C16.5659 13.6432 16.5313 13.4009 16.5313 13.15C16.5336 12.3092 16.8692 11.5037 17.4645 10.91C18.0598 10.3163 18.8663 9.98291 19.707 9.98291C20.6243 9.98291 21.4463 10.3637 22.0261 10.9867C22.7443 10.8396 23.4279 10.58 24.0423 10.2165C23.8 10.9521 23.2981 11.5751 22.6405 11.9645C23.2709 11.8956 23.8869 11.7292 24.4663 11.4713Z" fill="#009BC0"/>
</svg>
